# Blender v2.90.1 OBJ File: 'Watermelon1.blend'
# www.blender.org
o Cube_Cube.001
v -0.288059 -1.001992 1.794895
v -0.288059 0.996016 0.002988
v -0.288059 -1.000000 -1.894506
v 0.288059 -1.001992 1.794895
v 0.288059 0.996016 0.002988
v 0.288059 -1.000000 -1.894506
v -0.288059 -1.330988 -1.433331
v -0.288059 -1.600377 -0.972155
v -0.288059 -1.715332 -0.510980
v -0.288059 -1.749840 -0.049805
v -0.288059 -1.715827 0.411370
v -0.288059 -1.601343 0.872545
v -0.288059 -1.332293 1.333720
v 0.288059 -1.332293 1.333720
v 0.288059 -1.601343 0.872545
v 0.288059 -1.715827 0.411370
v 0.288059 -1.749840 -0.049805
v 0.288059 -1.715332 -0.510980
v 0.288059 -1.600377 -0.972156
v 0.288059 -1.330988 -1.433331
v -0.288059 -0.932704 1.732923
v -0.288059 -0.930712 -1.828872
v 0.288059 -0.930712 -1.828872
v 0.288059 -0.932704 1.732923
v 0.288059 -1.250230 -1.383648
v 0.288059 -1.510285 -0.938424
v 0.288059 -1.621263 -0.493199
v 0.288059 -1.654582 -0.047975
v 0.288059 -1.621758 0.397250
v 0.288059 -1.511252 0.842474
v 0.288059 -1.251542 1.287699
v -0.288059 -1.251542 1.287699
v -0.288059 -1.511252 0.842474
v -0.288059 -1.621758 0.397250
v -0.288059 -1.654582 -0.047975
v -0.288059 -1.621263 -0.493199
v -0.288059 -1.510285 -0.938423
v -0.288059 -1.250230 -1.383648
v -0.288059 -0.813160 1.626003
v -0.288059 -0.811168 -1.715635
v 0.288059 -0.811168 -1.715635
v 0.288059 -0.813160 1.626003
v 0.288059 -1.110897 -1.297930
v 0.288059 -1.354850 -0.880225
v 0.288059 -1.458964 -0.462521
v 0.288059 -1.490234 -0.044816
v 0.288059 -1.459459 0.372889
v 0.288059 -1.355818 0.790594
v 0.288059 -1.112221 1.208298
v -0.288059 -1.112221 1.208298
v -0.288059 -1.355819 0.790594
v -0.288059 -1.459459 0.372889
v -0.288059 -1.490234 -0.044816
v -0.288059 -1.458964 -0.462521
v -0.288059 -1.354850 -0.880225
v -0.288059 -1.110897 -1.297930
vt 0.050316 0.800467
vt 0.144549 0.901577
vt 0.054556 0.799114
vt 0.235386 0.922730
vt 0.174090 0.810799
vt 0.089616 0.788796
vt 0.070232 0.914000
vt 0.072288 0.788495
vt 0.132704 0.803545
vt 0.062823 0.880720
vt 0.062823 0.803545
vt 0.181759 0.710545
vt 0.203190 0.672154
vt 0.184019 0.672085
vt 0.047567 0.710055
vt 0.068997 0.671665
vt 0.049827 0.671594
vt 0.066737 0.710125
vt 0.088168 0.671734
vt 0.085908 0.710195
vt 0.107338 0.671805
vt 0.105078 0.710265
vt 0.126508 0.671875
vt 0.124248 0.710335
vt 0.145679 0.671944
vt 0.143419 0.710405
vt 0.164849 0.672015
vt 0.211091 0.931241
vt 0.191107 0.805199
vt 0.208555 0.804849
vt 0.172045 0.810701
vt 0.249187 0.843330
vt 0.069324 0.884864
vt 0.184744 0.796123
vt 0.072448 0.789464
vt 0.067903 0.819752
vt 0.063359 0.850041
vt 0.058814 0.880330
vt 0.231080 0.823692
vt 0.206936 0.797507
vt 0.094959 0.813137
vt 0.093602 0.831569
vt 0.225193 0.826802
vt 0.063037 0.796406
vt 0.058797 0.797760
vt 0.109128 0.701519
vt 0.107786 0.679699
vt 0.103723 0.680182
vt 0.099678 0.680728
vt 0.095650 0.681338
vt 0.105083 0.702064
vt 0.091640 0.682011
vt 0.101055 0.702673
vt 0.087649 0.682749
vt 0.097045 0.703346
vt 0.083674 0.683548
vt 0.093053 0.704084
vt 0.085122 0.705748
vt 0.079717 0.684413
vt 0.175926 0.700243
vt 0.174750 0.679025
vt 0.170521 0.678908
vt 0.171696 0.700125
vt 0.166291 0.678792
vt 0.167466 0.700008
vt 0.162062 0.678673
vt 0.163237 0.699891
vt 0.157832 0.678555
vt 0.159007 0.699772
vt 0.153602 0.678438
vt 0.149373 0.678321
vt 0.150548 0.699539
vt 0.145143 0.678203
vt 0.184385 0.700478
vt 0.213377 0.682098
vt 0.178980 0.679143
vt 0.117272 0.700618
vt 0.111867 0.679282
vt 0.098619 0.736986
vt 0.105221 0.754146
vt 0.099242 0.754091
vt 0.093262 0.754036
vt 0.087282 0.753980
vt 0.092639 0.736930
vt 0.081302 0.753924
vt 0.086659 0.736875
vt 0.075323 0.753869
vt 0.080680 0.736820
vt 0.069343 0.753814
vt 0.074700 0.736764
vt 0.062741 0.736653
vt 0.063363 0.753758
vt 0.194293 0.737874
vt 0.200896 0.755035
vt 0.194916 0.754979
vt 0.188314 0.737819
vt 0.188937 0.754924
vt 0.182334 0.737763
vt 0.182957 0.754868
vt 0.176354 0.737708
vt 0.176977 0.754813
vt 0.170375 0.737652
vt 0.170998 0.754757
vt 0.165018 0.754702
vt 0.158415 0.737541
vt 0.159038 0.754646
vt 0.206253 0.737985
vt 0.254713 0.755534
vt 0.206876 0.755090
vt 0.110578 0.737097
vt 0.111201 0.754202
vt 0.097768 0.848671
vt 0.097768 0.925846
vt 0.027886 0.925846
vt 0.200930 0.710615
vt 0.246169 0.840057
vt 0.162589 0.710475
vt 0.176883 0.803915
vt 0.135782 0.902287
vt 0.132820 0.893419
vt 0.054270 0.910619
vt 0.153034 0.787021
vt 0.169347 0.806646
vt 0.110584 0.806102
vt 0.096316 0.794704
vt 0.067277 0.795051
vt 0.113191 0.701036
vt 0.089079 0.704885
vt 0.180155 0.700361
vt 0.154777 0.699656
vt 0.218782 0.703435
vt 0.104598 0.737042
vt 0.068720 0.736708
vt 0.200273 0.737930
vt 0.164395 0.737597
vt 0.254090 0.738429
vn -1.0000 0.0000 0.0000
vn 1.0000 0.0000 0.0000
vn 0.0000 0.6678 0.7444
vn 0.0000 -0.8130 0.5823
vn 0.0000 -0.8124 -0.5831
vn 0.0000 -0.8635 -0.5044
vn -0.0000 -0.9703 -0.2419
vn -0.0000 -0.9972 -0.0746
vn 0.0000 -0.9973 0.0736
vn 0.0000 -0.9705 0.2409
vn 0.0000 -0.8638 0.5039
vn 0.0000 0.6891 -0.7246
vn 0.0000 0.6667 0.7454
vn 0.0000 0.6877 -0.7260
s off
f 51/1/1 2/2/1 52/3/1
f 2/4/1 51/1/1 50/5/1
f 49/6/2 5/7/2 42/8/2
f 5/9/3 39/10/3 42/11/3
f 14/12/4 1/13/4 13/14/4
f 6/15/5 7/16/5 3/17/5
f 20/18/6 8/19/6 7/16/6
f 19/20/7 9/21/7 8/19/7
f 18/22/8 10/23/8 9/21/8
f 17/24/9 11/25/9 10/23/9
f 16/26/10 12/27/10 11/25/10
f 12/27/11 14/12/11 13/14/11
f 2/28/1 50/29/1 39/30/1
f 49/31/2 48/32/2 5/33/2
f 5/34/2 46/35/2 45/36/2
f 5/34/2 44/37/2 43/38/2
f 41/39/12 40/40/12 5/33/12
f 56/41/1 55/42/1 2/43/1
f 2/2/1 54/44/1 53/45/1
f 37/46/1 7/47/1 8/48/1
f 9/49/1 37/46/1 8/48/1
f 10/50/1 36/51/1 9/49/1
f 11/52/1 35/53/1 10/50/1
f 12/54/1 34/55/1 11/52/1
f 13/56/1 33/57/1 12/54/1
f 21/58/1 13/56/1 1/59/1
f 30/60/2 14/61/2 15/62/2
f 29/63/2 15/62/2 16/64/2
f 28/65/2 16/64/2 17/66/2
f 27/67/2 17/66/2 18/68/2
f 26/69/2 18/68/2 19/70/2
f 20/71/2 26/69/2 19/70/2
f 23/72/2 20/71/2 6/73/2
f 24/74/13 1/75/13 4/76/13
f 14/61/2 24/74/2 4/76/2
f 22/77/14 6/73/14 3/78/14
f 7/47/1 22/77/1 3/78/1
f 55/79/1 38/80/1 37/81/1
f 36/82/1 55/79/1 37/81/1
f 35/83/1 54/84/1 36/82/1
f 34/85/1 53/86/1 35/83/1
f 33/87/1 52/88/1 34/85/1
f 32/89/1 51/90/1 33/87/1
f 39/91/1 32/89/1 21/92/1
f 48/93/2 31/94/2 30/95/2
f 47/96/2 30/95/2 29/97/2
f 46/98/2 29/97/2 28/99/2
f 45/100/2 28/99/2 27/101/2
f 44/102/2 27/101/2 26/103/2
f 25/104/2 44/102/2 26/103/2
f 41/105/2 25/104/2 23/106/2
f 42/107/13 21/108/13 24/109/13
f 31/94/2 42/107/2 24/109/2
f 40/110/14 23/106/14 22/111/14
f 38/80/1 40/110/1 22/111/1
f 5/112/3 2/113/3 39/114/3
f 14/12/4 4/115/4 1/13/4
f 48/32/2 47/116/2 5/33/2
f 6/15/5 20/18/5 7/16/5
f 20/18/6 19/20/6 8/19/6
f 19/20/7 18/22/7 9/21/7
f 18/22/8 17/24/8 10/23/8
f 17/24/9 16/26/9 11/25/9
f 16/26/10 15/117/10 12/27/10
f 12/27/11 15/117/11 14/12/11
f 5/118/2 47/119/2 46/120/2
f 45/36/2 44/37/2 5/34/2
f 5/34/2 43/38/2 41/121/2
f 2/122/12 5/123/12 40/124/12
f 56/41/1 2/43/1 40/125/1
f 2/2/1 55/126/1 54/44/1
f 53/45/1 52/3/1 2/2/1
f 37/46/1 38/127/1 7/47/1
f 9/49/1 36/51/1 37/46/1
f 10/50/1 35/53/1 36/51/1
f 11/52/1 34/55/1 35/53/1
f 12/54/1 33/57/1 34/55/1
f 13/56/1 32/128/1 33/57/1
f 21/58/1 32/128/1 13/56/1
f 30/60/2 31/129/2 14/61/2
f 29/63/2 30/60/2 15/62/2
f 28/65/2 29/63/2 16/64/2
f 27/67/2 28/65/2 17/66/2
f 26/69/2 27/67/2 18/68/2
f 20/71/2 25/130/2 26/69/2
f 23/72/2 25/130/2 20/71/2
f 24/74/13 21/131/13 1/75/13
f 14/61/2 31/129/2 24/74/2
f 22/77/14 23/72/14 6/73/14
f 7/47/1 38/127/1 22/77/1
f 55/79/1 56/132/1 38/80/1
f 36/82/1 54/84/1 55/79/1
f 35/83/1 53/86/1 54/84/1
f 34/85/1 52/88/1 53/86/1
f 33/87/1 51/90/1 52/88/1
f 32/89/1 50/133/1 51/90/1
f 39/91/1 50/133/1 32/89/1
f 48/93/2 49/134/2 31/94/2
f 47/96/2 48/93/2 30/95/2
f 46/98/2 47/96/2 29/97/2
f 45/100/2 46/98/2 28/99/2
f 44/102/2 45/100/2 27/101/2
f 25/104/2 43/135/2 44/102/2
f 41/105/2 43/135/2 25/104/2
f 42/107/13 39/136/13 21/108/13
f 31/94/2 49/134/2 42/107/2
f 40/110/14 41/105/14 23/106/14
f 38/80/1 56/132/1 40/110/1
