# Blender v2.90.1 OBJ File: 'Watermelon1.blend'
# www.blender.org
o Cube_Cube.001
v -0.288059 -1.001992 1.794895
v -0.288059 0.996016 0.002988
v -0.288059 -1.000000 -1.894506
v 0.288059 -1.001992 1.794895
v 0.288059 0.996016 0.002988
v 0.288059 -1.000000 -1.894506
v -0.288059 -1.330988 -1.433331
v -0.288059 -1.600377 -0.972155
v -0.288059 -1.715332 -0.510980
v -0.288059 -1.749840 -0.049805
v -0.288059 -1.715827 0.411370
v -0.288059 -1.601343 0.872545
v -0.288059 -1.332293 1.333720
v 0.288059 -1.332293 1.333720
v 0.288059 -1.601343 0.872545
v 0.288059 -1.715827 0.411370
v 0.288059 -1.749840 -0.049805
v 0.288059 -1.715332 -0.510980
v 0.288059 -1.600377 -0.972156
v 0.288059 -1.330988 -1.433331
v -0.288059 -0.932704 1.732923
v -0.288059 -0.930712 -1.828872
v 0.288059 -0.930712 -1.828872
v 0.288059 -0.932704 1.732923
v 0.288059 -1.250230 -1.383648
v 0.288059 -1.510285 -0.938424
v 0.288059 -1.621263 -0.493199
v 0.288059 -1.654582 -0.047975
v 0.288059 -1.621758 0.397250
v 0.288059 -1.511252 0.842474
v 0.288059 -1.251542 1.287699
v -0.288059 -1.251542 1.287699
v -0.288059 -1.511252 0.842474
v -0.288059 -1.621758 0.397250
v -0.288059 -1.654582 -0.047975
v -0.288059 -1.621263 -0.493199
v -0.288059 -1.510285 -0.938423
v -0.288059 -1.250230 -1.383648
v -0.288059 -0.813160 1.626003
v -0.288059 -0.811168 -1.715635
v 0.288059 -0.811168 -1.715635
v 0.288059 -0.813160 1.626003
v 0.288059 -1.110897 -1.297930
v 0.288059 -1.354850 -0.880225
v 0.288059 -1.458964 -0.462521
v 0.288059 -1.490234 -0.044816
v 0.288059 -1.459459 0.372889
v 0.288059 -1.355818 0.790594
v 0.288059 -1.112221 1.208298
v -0.288059 -1.112221 1.208298
v -0.288059 -1.355819 0.790594
v -0.288059 -1.459459 0.372889
v -0.288059 -1.490234 -0.044816
v -0.288059 -1.458964 -0.462521
v -0.288059 -1.354850 -0.880225
v -0.288059 -1.110897 -1.297930
vt 0.037996 0.804448
vt 0.164431 0.940109
vt 0.043686 0.802632
vt 0.286310 0.968491
vt 0.204066 0.818311
vt 0.090726 0.788789
vt 0.064717 0.956778
vt 0.067477 0.788385
vt 0.148539 0.808577
vt 0.054777 0.912126
vt 0.054777 0.808577
vt 0.172722 0.678146
vt 0.177274 0.710640
vt 0.173203 0.710699
vt 0.144230 0.678561
vt 0.148781 0.711055
vt 0.144711 0.711114
vt 0.148300 0.678502
vt 0.152851 0.710995
vt 0.152370 0.678443
vt 0.156922 0.710936
vt 0.156441 0.678383
vt 0.160992 0.710877
vt 0.160511 0.678324
vt 0.165062 0.710818
vt 0.164582 0.678265
vt 0.169133 0.710758
vt 0.253711 0.979911
vt 0.226899 0.810798
vt 0.250310 0.810328
vt 0.201323 0.818179
vt 0.304827 0.861959
vt 0.063500 0.917686
vt 0.218362 0.798620
vt 0.067691 0.789685
vt 0.061593 0.830324
vt 0.055496 0.870963
vt 0.049398 0.911602
vt 0.280531 0.835609
vt 0.248137 0.800476
vt 0.097894 0.821448
vt 0.096074 0.846179
vt 0.272633 0.839783
vt 0.055064 0.798999
vt 0.049375 0.800816
vt 0.103580 0.677857
vt 0.107654 0.678959
vt 0.103597 0.678986
vt 0.099542 0.679010
vt 0.095488 0.679030
vt 0.099525 0.677881
vt 0.091435 0.679048
vt 0.095471 0.677902
vt 0.087384 0.679061
vt 0.091418 0.677919
vt 0.083335 0.679072
vt 0.087367 0.677933
vt 0.079269 0.677950
vt 0.079286 0.679079
vt 0.168635 0.677077
vt 0.168652 0.678206
vt 0.164565 0.677136
vt 0.160494 0.677196
vt 0.156424 0.677255
vt 0.152354 0.677314
vt 0.144213 0.677433
vt 0.176776 0.676959
vt 0.209401 0.677506
vt 0.176793 0.678087
vt 0.111695 0.677799
vt 0.111712 0.678928
vt 0.099075 0.742630
vt 0.104948 0.745691
vt 0.098978 0.745488
vt 0.093008 0.745284
vt 0.087038 0.745081
vt 0.093105 0.742427
vt 0.081068 0.744877
vt 0.087135 0.742223
vt 0.075097 0.744674
vt 0.081165 0.742020
vt 0.069127 0.744470
vt 0.075195 0.741816
vt 0.063255 0.741409
vt 0.063157 0.744267
vt 0.194596 0.745886
vt 0.200468 0.748947
vt 0.194498 0.748743
vt 0.188626 0.745682
vt 0.188528 0.748540
vt 0.182656 0.745479
vt 0.182558 0.748336
vt 0.176686 0.745275
vt 0.176588 0.748133
vt 0.170716 0.745072
vt 0.170618 0.747929
vt 0.164648 0.747726
vt 0.158776 0.744665
vt 0.158678 0.747522
vt 0.206536 0.746293
vt 0.254199 0.750778
vt 0.206438 0.749150
vt 0.111015 0.743037
vt 0.110918 0.745895
vt 0.101664 0.869124
vt 0.101664 0.972673
vt 0.007902 0.972673
vt 0.300777 0.857567
vt 0.207814 0.809075
vt 0.152668 0.941062
vt 0.148694 0.929164
vt 0.043301 0.952241
vt 0.175815 0.786407
vt 0.197703 0.812738
vt 0.118860 0.812008
vt 0.099715 0.796716
vt 0.060753 0.797182
vt 0.107637 0.677830
vt 0.083318 0.677943
vt 0.172705 0.677018
vt 0.148283 0.677373
vt 0.209384 0.676377
vt 0.105045 0.742834
vt 0.069225 0.741613
vt 0.200566 0.746089
vt 0.164746 0.744868
vt 0.254296 0.747920
vn -1.0000 0.0000 0.0000
vn 1.0000 0.0000 0.0000
vn 0.0000 0.6678 0.7444
vn 0.0000 -0.8130 0.5823
vn 0.0000 -0.8124 -0.5831
vn 0.0000 -0.8635 -0.5044
vn -0.0000 -0.9703 -0.2419
vn -0.0000 -0.9972 -0.0746
vn 0.0000 -0.9973 0.0736
vn 0.0000 -0.9705 0.2409
vn 0.0000 -0.8638 0.5039
vn 0.0000 0.6891 -0.7246
vn 0.0000 0.6667 0.7454
vn 0.0000 0.6877 -0.7260
s off
f 51/1/1 2/2/1 52/3/1
f 2/4/1 51/1/1 50/5/1
f 49/6/2 5/7/2 42/8/2
f 5/9/3 39/10/3 42/11/3
f 14/12/4 1/13/4 13/14/4
f 6/15/5 7/16/5 3/17/5
f 20/18/6 8/19/6 7/16/6
f 19/20/7 9/21/7 8/19/7
f 18/22/8 10/23/8 9/21/8
f 17/24/9 11/25/9 10/23/9
f 16/26/10 12/27/10 11/25/10
f 12/27/11 14/12/11 13/14/11
f 2/28/1 50/29/1 39/30/1
f 49/31/2 48/32/2 5/33/2
f 5/34/2 46/35/2 45/36/2
f 5/34/2 44/37/2 43/38/2
f 41/39/12 40/40/12 5/33/12
f 56/41/1 55/42/1 2/43/1
f 2/2/1 54/44/1 53/45/1
f 37/46/1 7/47/1 8/48/1
f 9/49/1 37/46/1 8/48/1
f 10/50/1 36/51/1 9/49/1
f 11/52/1 35/53/1 10/50/1
f 12/54/1 34/55/1 11/52/1
f 13/56/1 33/57/1 12/54/1
f 21/58/1 13/56/1 1/59/1
f 30/60/2 14/12/2 15/61/2
f 29/62/2 15/61/2 16/26/2
f 28/63/2 16/26/2 17/24/2
f 27/64/2 17/24/2 18/22/2
f 26/65/2 18/22/2 19/20/2
f 20/18/2 26/65/2 19/20/2
f 23/66/2 20/18/2 6/15/2
f 24/67/13 1/68/13 4/69/13
f 14/12/2 24/67/2 4/69/2
f 22/70/14 6/15/14 3/71/14
f 7/47/1 22/70/1 3/71/1
f 55/72/1 38/73/1 37/74/1
f 36/75/1 55/72/1 37/74/1
f 35/76/1 54/77/1 36/75/1
f 34/78/1 53/79/1 35/76/1
f 33/80/1 52/81/1 34/78/1
f 32/82/1 51/83/1 33/80/1
f 39/84/1 32/82/1 21/85/1
f 48/86/2 31/87/2 30/88/2
f 47/89/2 30/88/2 29/90/2
f 46/91/2 29/90/2 28/92/2
f 45/93/2 28/92/2 27/94/2
f 44/95/2 27/94/2 26/96/2
f 25/97/2 44/95/2 26/96/2
f 41/98/2 25/97/2 23/99/2
f 42/100/13 21/101/13 24/102/13
f 31/87/2 42/100/2 24/102/2
f 40/103/14 23/99/14 22/104/14
f 38/73/1 40/103/1 22/104/1
f 5/105/3 2/106/3 39/107/3
f 14/12/4 4/69/4 1/13/4
f 48/32/2 47/108/2 5/33/2
f 6/15/5 20/18/5 7/16/5
f 20/18/6 19/20/6 8/19/6
f 19/20/7 18/22/7 9/21/7
f 18/22/8 17/24/8 10/23/8
f 17/24/9 16/26/9 11/25/9
f 16/26/10 15/61/10 12/27/10
f 12/27/11 15/61/11 14/12/11
f 5/109/2 47/110/2 46/111/2
f 45/36/2 44/37/2 5/34/2
f 5/34/2 43/38/2 41/112/2
f 2/113/12 5/114/12 40/115/12
f 56/41/1 2/43/1 40/116/1
f 2/2/1 55/117/1 54/44/1
f 53/45/1 52/3/1 2/2/1
f 37/46/1 38/118/1 7/47/1
f 9/49/1 36/51/1 37/46/1
f 10/50/1 35/53/1 36/51/1
f 11/52/1 34/55/1 35/53/1
f 12/54/1 33/57/1 34/55/1
f 13/56/1 32/119/1 33/57/1
f 21/58/1 32/119/1 13/56/1
f 30/60/2 31/120/2 14/12/2
f 29/62/2 30/60/2 15/61/2
f 28/63/2 29/62/2 16/26/2
f 27/64/2 28/63/2 17/24/2
f 26/65/2 27/64/2 18/22/2
f 20/18/2 25/121/2 26/65/2
f 23/66/2 25/121/2 20/18/2
f 24/67/13 21/122/13 1/68/13
f 14/12/2 31/120/2 24/67/2
f 22/70/14 23/66/14 6/15/14
f 7/47/1 38/118/1 22/70/1
f 55/72/1 56/123/1 38/73/1
f 36/75/1 54/77/1 55/72/1
f 35/76/1 53/79/1 54/77/1
f 34/78/1 52/81/1 53/79/1
f 33/80/1 51/83/1 52/81/1
f 32/82/1 50/124/1 51/83/1
f 39/84/1 50/124/1 32/82/1
f 48/86/2 49/125/2 31/87/2
f 47/89/2 48/86/2 30/88/2
f 46/91/2 47/89/2 29/90/2
f 45/93/2 46/91/2 28/92/2
f 44/95/2 45/93/2 27/94/2
f 25/97/2 43/126/2 44/95/2
f 41/98/2 43/126/2 25/97/2
f 42/100/13 39/127/13 21/101/13
f 31/87/2 49/125/2 42/100/2
f 40/103/14 41/98/14 23/99/14
f 38/73/1 56/123/1 40/103/1
